HIERARCHY
ROOT Hips
{
  OFFSET -33.9132 29.2015 117.021
  CHANNELS 6 Xposition Yposition Zposition Zrotation Xrotation Yrotation
  JOINT LeftUpLeg
  {
    OFFSET 8.64259 1.95398 -2.38835
    CHANNELS 3 Zrotation Xrotation Yrotation
    JOINT LeftLeg
    {
      OFFSET 43.7702 0 0
      CHANNELS 3 Zrotation Xrotation Yrotation
      JOINT LeftFoot
      {
        OFFSET 40.6238 0 0
        CHANNELS 3 Zrotation Xrotation Yrotation
        JOINT LeftToeBase
        {
          OFFSET 12.7242 0 0
          CHANNELS 3 Zrotation Xrotation Yrotation
          End Site
          {
            OFFSET 0 0 0
          }
        }
      }
    }
  }
  JOINT RightUpLeg
  {
    OFFSET -8.2249 1.95398 -2.59336
    CHANNELS 3 Zrotation Xrotation Yrotation
    JOINT RightLeg
    {
      OFFSET 43.5653 0 0
      CHANNELS 3 Zrotation Xrotation Yrotation
      JOINT RightFoot
      {
        OFFSET 40.6238 0 0
        CHANNELS 3 Zrotation Xrotation Yrotation
        JOINT RightToeBase
        {
          OFFSET 12.7242 0 0
          CHANNELS 3 Zrotation Xrotation Yrotation
          End Site
          {
            OFFSET 0 0 0
          }
        }
      }
    }
  }
  JOINT Spine
  {
    OFFSET 0.165834 0.87714 6.61349
    CHANNELS 3 Zrotation Xrotation Yrotation
    JOINT Spine1
    {
      OFFSET 7.38963 1.71661e-005 0
      CHANNELS 3 Zrotation Xrotation Yrotation
      JOINT Spine2
      {
        OFFSET 11.9445 1.14441e-005 0
        CHANNELS 3 Zrotation Xrotation Yrotation
        JOINT Spine3
        {
          OFFSET 14.7254 4.19617e-005 0
          CHANNELS 3 Zrotation Xrotation Yrotation
          JOINT Spine4
          {
            OFFSET 10.9679 0 0
            CHANNELS 3 Zrotation Xrotation Yrotation
            JOINT RightShoulder
            {
              OFFSET 2.46616 -1.6653 3.69651
              CHANNELS 3 Zrotation Xrotation Yrotation
              JOINT RightArm
              {
                OFFSET 13.0012 0 0
                CHANNELS 3 Zrotation Xrotation Yrotation
                JOINT RightForeArm
                {
                  OFFSET 28.7848 1.62311e-005 0
                  CHANNELS 3 Zrotation Xrotation Yrotation
                  JOINT RightHand
                  {
                    OFFSET 26.5688 1.62095e-005 0
                    CHANNELS 3 Zrotation Xrotation Yrotation
                    End Site
                    {
                      OFFSET 0 0 0
                    }
                  }
                }
              }
            }
            JOINT LeftShoulder
            {
              OFFSET 2.38034 -1.29275 -3.7523
              CHANNELS 3 Zrotation Xrotation Yrotation
              JOINT LeftArm
              {
                OFFSET 16.3182 6.07031e-005 0
                CHANNELS 3 Zrotation Xrotation Yrotation
                JOINT LeftForeArm
                {
                  OFFSET 27.0901 0 0
                  CHANNELS 3 Zrotation Xrotation Yrotation
                  JOINT LeftHand
                  {
                    OFFSET 24.5451 1.51738e-005 0
                    CHANNELS 3 Zrotation Xrotation Yrotation
                    End Site
                    {
                      OFFSET 0 0 0
                    }
                  }
                }
              }
            }
            JOINT Neck
            {
              OFFSET 5.0226 -0.0266342 0
              CHANNELS 3 Zrotation Xrotation Yrotation
              JOINT Head
              {
                OFFSET 6.69364 2.86102e-005 0
                CHANNELS 3 Zrotation Xrotation Yrotation
                End Site
                {
                  OFFSET 0 0 0
                }
              }
            }
          }
        }
      }
    }
  }
}
MOTION
Frames:	9
Frame Time:	0.0416667
0.0423496 96.9734 143.465 -149.464 -83.4345 -151.556 -177.962 18.023 84.2775 -7.15003 0.760833 -1.78414 67.1844 4.22375 -2.92994 16.0091 -10.816 7.9035 173.14 -11.1128 90.5586 -20.8609 -17.5856 -1.08875 78.0251 -11.5169 -3.65166 26.1358 0.0656391 4.22429 1.01891 8.17485 -89.8956 10.5253 2.07749 0.0219783 -1.14398 2.07643 -0.0695267 -23.6915 1.97479 0.645574 -3.67887 1.97479 0.645577 89.8097 -24.8529 -109.301 42.7995 4.37248 -18.6665 -5.32585 -42.3883 -5.4653 -19.8446 2.6392 -20.7411 -88.525 -53.7057 81.6163 -20.7789 -16.3387 -1.36119 -9.01127 16.4383 -0.0325035 8.00952 -1.62093 -21.3936 -2.48643 -2.12184 2.88959 1.06783 -2.49568 -1.57903 
0.275278 96.3667 150.296 -141.247 -82.9773 -143.461 -177.766 16.9432 84.0635 -8.03067 1.24751 -2.06956 59.022 -0.0546836 -3.2847 12.4029 -11.1822 5.06792 172.459 -15.8735 89.5239 -19.06 -18.4505 -1.78083 76.2536 -11.1383 -4.8003 30.2345 -1.76297 4.82204 1.07876 8.04956 -89.8613 10.7756 2.21214 0.0710183 -0.893422 2.21312 -0.026473 -23.4424 2.08848 0.732863 -3.4298 2.08848 0.732861 89.6239 -25.2897 -109.497 44.177 3.86486 -17.6914 -5.35408 -42.7924 -5.48222 -19.4838 2.63295 -21.0042 -88.3426 -54.3698 81.9936 -20.6917 -16.3229 -0.620129 -9.05694 17.8082 -0.0482927 7.6682 -1.39118 -19.8199 -2.71529 -1.76987 3.25008 0.633087 -2.1856 -1.84286 
0.538366 96.3204 158.025 -135.27 -81.8217 -139.324 -176.688 17.8222 82.0355 -17.788 3.2429 -3.0871 59.9349 -1.08446 -2.29469 7.15955 -13.8855 4.40524 170.365 -18.2408 85.7449 -21.8239 -20.2877 -2.99612 70.9318 -7.68255 -4.68121 38.6337 -5.29036 6.23293 1.10906 7.94186 -89.5645 10.9847 2.40968 0.637193 -0.684064 2.43538 0.530458 -23.2324 2.10674 1.3322 -3.2198 2.10673 1.3322 89.3237 -26.1688 -109.73 46.8852 3.33228 -14.4952 -5.40338 -43.4881 -5.51221 -18.3468 2.40515 -20.6194 -88.2414 -53.8861 82.0553 -20.4784 -17.0806 0.282101 -8.92354 17.2693 -0.00950082 6.79675 -1.05198 -17.9002 -2.89377 -1.59288 1.93769 -0.283153 -1.82732 -1.1687 
0.774082 96.7101 165.221 -138.616 -80.1929 -144.78 -175.562 13.5367 79.9133 -22.2127 4.37179 -4.43003 64.7034 2.04323 -1.86966 5.20748 -14.4242 3.50543 168.494 -16.4367 81.3955 -32.3798 -23.1465 -4.71404 64.0076 -2.83792 -2.82339 39.9853 -6.14152 8.77457 0.998129 7.98041 -89.264 10.9004 2.32765 1.24537 -0.768932 2.3802 1.14168 -23.3108 1.84579 1.8874 -3.29817 1.84579 1.8874 89.1369 -26.7509 -109.854 49.3698 3.25217 -10.7335 -5.45152 -44.156 -5.54153 -13.7176 1.78103 -20.6939 -88.3238 -53.1892 81.8156 -20.3467 -18.051 0.99341 -8.61047 16.8152 -0.0456877 4.70228 -0.647427 -16.6604 -3.5912 -1.18034 0.579214 -0.704208 -1.23441 0.0144649 
0.894795 96.9807 171.051 -133.524 -77.9821 -140.593 -174.963 9.02422 79.2647 -23.9234 2.45207 -5.21229 69.013 4.71015 -1.96101 8.53044 -12.0926 3.03526 169.528 -8.31378 78.8847 -49.2259 -26.2075 -6.41971 55.3979 3.09263 1.16105 26.8861 -0.737443 6.33422 0.942801 8.05228 -89.1375 10.7528 2.27521 1.50511 -0.916953 2.33924 1.40348 -23.4552 1.71777 2.11928 -3.44259 1.71777 2.11928 88.7299 -27.3309 -110.429 50.8755 3.53746 -7.69531 -5.52515 -45.1502 -5.58859 -16.5938 1.86817 -18.6045 -88.3284 -52.4272 81.6738 -20.691 -18.0952 -0.228882 -8.61516 16.9864 -0.0133281 5.55598 -0.652276 -15.5748 -3.50477 -0.377452 -0.345121 -0.915851 -0.326672 0.612352 
0.817961 97.2598 175.618 -128.206 -76.2133 -134.996 -175.335 5.53092 78.9561 -23.7475 1.08505 -4.93085 72.0191 6.28027 -1.35563 8.61562 -12.4578 3.6337 173.549 0.835659 80.1939 -61.9957 -26.2747 -7.5545 57.0367 1.91287 0.520719 25.1606 0.143284 5.42774 0.762158 8.09948 -89.2254 10.6624 1.8745 1.36916 -1.00784 1.93293 1.28531 -23.5438 1.37641 1.86917 -3.53112 1.37642 1.86917 87.85 -26.8614 -112.447 51.3264 4.12746 -5.3258 -5.26828 -41.5418 -5.43141 -17.77 2.04368 -18.7612 -89.097 -52.6712 80.5988 -20.2354 -17.4862 -2.08582 -8.88115 17.3253 -0.112888 6.45871 -0.639726 -14.0335 -3.35856 0.979094 0.51608 -0.689321 0.917557 0.162566 
0.368742 97.7557 180.038 -131.284 -76.1621 -135.173 -175.447 1.91719 80.9451 -23.5863 2.27111 -3.36415 74.2737 7.71441 -0.503661 10.2178 -12.0712 4.45887 176.334 6.57123 84.8431 -62.0279 -19.3572 -6.19173 65.0278 -3.75071 -1.05411 27.431 -0.628293 4.84917 0.416134 8.2241 -89.5617 10.4222 1.02991 0.780362 -1.24854 1.06326 0.734263 -23.7838 0.747778 1.05381 -3.77115 0.747782 1.0538 89.5152 -27.9132 -108.572 50.3275 4.42857 -5.73301 -5.44986 -44.1347 -5.54102 -17.8267 2.01535 -18.5346 -88.7829 -51.4576 80.8292 -19.7606 -15.5341 -7.91483 -9.62105 19.6497 -0.00272269 6.9325 -0.631295 -13.9603 -3.4267 1.79045 -1.50874 -0.141943 1.97823 1.59326 
-0.341689 98.1653 184.037 -134.238 -77.2102 -135.539 -174.946 -1.00523 83.4947 -22.673 3.84813 -2.37121 75.8945 8.98619 -0.413335 12.2208 -11.5635 5.48212 178.622 11.5565 89.8522 -53.1535 -10.574 -4.91237 68.0271 -6.05616 -2.22674 27.4639 -0.596681 4.68741 0.0692066 8.2847 -89.8825 10.3039 0.191656 0.217064 -1.36705 0.201015 0.20841 -23.9021 0.117562 0.264634 -3.88949 0.117555 0.26462 89.7806 -28.6509 -107.73 49.2345 5.08776 -5.14316 -5.31971 -42.2971 -5.46152 -18.2097 2.01455 -18.231 -88.5653 -49.4743 80.7736 -20.8483 -14.0945 -14.2819 -10.2064 20.1228 -0.000555326 9.57763 -0.881877 -13.8507 -3.66289 2.43438 -2.91546 -0.57942 2.77482 2.33082 
-1.11986 98.2197 188.181 -140.411 -79.4742 -140.124 -174.711 -3.34034 85.2795 -21.9142 5.69158 -1.37437 77.682 10.3049 -0.432302 12.3974 -11.5388 5.60465 -179.999 14.7868 92.7058 -38.5672 -6.94887 -3.75617 67.4363 -5.71523 -1.09287 25.0422 0.617606 3.90855 -0.337137 8.30045 -90.0676 10.2731 -0.702533 -0.0738076 -1.39767 -0.7051 -0.0428317 -23.9341 -0.647879 -0.281551 -3.92143 -0.647872 -0.281553 89.9519 -29.1332 -107.191 49.1496 5.31767 -4.51617 -5.21095 -40.6813 -5.39837 -18.6018 2.08597 -18.3818 -88.4628 -47.245 80.4938 -22.6878 -14.291 -19.6599 -9.56199 21.8 -0.0169361 8.74844 -1.06757 -16.1694 -3.32572 2.73713 -4.50064 -1.32302 3.25562 3.22357 
